<svg width="80" height="80" xmlns="http://www.w3.org/2000/svg">
  <g fill="none" fillRule="evenodd">
    <path fill="#D8D8D8" d="M0 0h80v80H0z"/>
    <path d="M48.75 32.134l-.884-.884L31.25 47.866l.884.884 1.25-1.25H46.25a1.252 1.252 0 001.25-1.25V33.384l1.25-1.25zm-2.5 14.116H34.634l4.87-4.87 1.487 1.486a1.25 1.25 0 001.768 0l.991-.991 2.5 2.498v1.877zm0-3.645l-1.616-1.616a1.25 1.25 0 00-1.768 0l-.991.991-1.486-1.486 5.861-5.86v7.971zm-12.5 1.145v-1.875l3.125-3.123.858.859.885-.885-.86-.86a1.25 1.25 0 00-1.767 0l-2.241 2.242V33.75h10V32.5h-10c-.69 0-1.25.56-1.25 1.25v10h1.25z" fill="#6F6F6F"/>
  </g>
</svg>
