<svg viewBox="595.32 297.964 80 80" width="80" height="80" xmlns="http://www.w3.org/2000/svg">
  <g fill="none" fillRule="evenodd">
    <path fill="#D8D8D8" d="M 595.32 297.964 L 675.32 297.964 L 675.32 377.964 L 595.32 377.964 L 595.32 297.964 Z" transform="matrix(1, 0, 0, 1, 7.105427357601002e-15, -1.4210854715202004e-14)"/>
    <path d="M 637.322 341.638 L 635.604 339.935 C 634.815 339.152 634.42 338.761 633.966 338.614 C 633.566 338.485 633.136 338.485 632.736 338.614 C 632.282 338.761 631.887 339.152 631.098 339.935 L 627.099 343.963 M 637.322 341.638 L 637.663 341.3 C 638.469 340.5 638.872 340.101 639.334 339.955 C 639.741 339.827 640.178 339.832 640.581 339.969 C 641.04 340.126 641.434 340.535 642.221 341.352 L 643.057 342.201 M 637.322 341.638 L 641.277 345.663 M 641.277 345.663 C 640.927 345.701 640.478 345.701 639.857 345.701 L 630.257 345.701 C 629.137 345.701 628.577 345.701 628.149 345.483 C 627.773 345.291 627.467 344.985 627.275 344.609 C 627.183 344.428 627.129 344.223 627.099 343.963 M 641.277 345.663 C 641.558 345.633 641.774 345.58 641.965 345.483 C 642.341 345.291 642.647 344.985 642.839 344.609 C 643.057 344.181 643.057 343.621 643.057 342.501 L 643.057 338.701 M 634.057 329.701 L 630.257 329.701 C 629.137 329.701 628.577 329.701 628.149 329.919 C 627.773 330.11 627.467 330.416 627.275 330.793 C 627.057 331.22 627.057 331.78 627.057 332.901 L 627.057 342.501 C 627.057 343.147 627.057 343.607 627.099 343.963 M 641.057 334.701 L 641.057 331.701 M 641.057 331.701 L 641.057 328.701 M 641.057 331.701 L 644.057 331.701 M 641.057 331.701 L 638.057 331.701" stroke="#000000" stroke-width="2" stroke-linecap="round" stroke-linejoin="round" fill="none" transform="matrix(1, 0, 0, 1, 7.105427357601002e-15, -1.4210854715202004e-14)"/>
  </g>
</svg>